<?xml version="1.0" encoding="utf-8"?>
<!-- Generator: Adobe Illustrator 16.0.0, SVG Export Plug-In . SVG Version: 6.00 Build 0)  -->
<!DOCTYPE svg PUBLIC "-//W3C//DTD SVG 1.1//EN" "http://www.w3.org/Graphics/SVG/1.1/DTD/svg11.dtd">
<svg version="1.1" id="Capa_1" xmlns="http://www.w3.org/2000/svg" xmlns:xlink="http://www.w3.org/1999/xlink" x="0px" y="0px"
	 width="230px" height="361px" viewBox="0 0 230 361" enable-background="new 0 0 230 361" xml:space="preserve">
<g>
	<g>
		
			<linearGradient id="SVGID_1_" gradientUnits="userSpaceOnUse" x1="15.6079" y1="179.9102" x2="195.6748" y2="179.9102" gradientTransform="matrix(0.9487 -0.316 0.316 0.9487 -45.9141 44.6255)">
			<stop  offset="0" style="stop-color:#282561"/>
			<stop  offset="0.5" style="stop-color:#673090"/>
			<stop  offset="0.6467" style="stop-color:#652F8D"/>
			<stop  offset="0.7537" style="stop-color:#5F2D86"/>
			<stop  offset="0.8482" style="stop-color:#572B7C"/>
			<stop  offset="0.9349" style="stop-color:#4B286F"/>
			<stop  offset="1" style="stop-color:#3E2563"/>
		</linearGradient>
		<path fill="url(#SVGID_1_)" d="M36.763,171.573c0,0,19.408,9.822,111.792-12.003c20.654-4.88,34.332-7.788,47.25-5.844
			c0,0,11.445,11.96-14.092,22.941s-61.246,37.288-61.246,37.288s-51.573,13.222-56.398,12.85s-25.98,2.222-37.705-16.635
			C14.639,191.314,36.763,171.573,36.763,171.573z"/>
		
			<linearGradient id="SVGID_2_" gradientUnits="userSpaceOnUse" x1="15.6079" y1="179.9102" x2="195.6748" y2="179.9102" gradientTransform="matrix(0.9487 -0.316 0.316 0.9487 -45.9141 44.6255)">
			<stop  offset="0" style="stop-color:#19234D"/>
			<stop  offset="0.1286" style="stop-color:#39275C;stop-opacity:0.8714"/>
			<stop  offset="0.2955" style="stop-color:#592A6D;stop-opacity:0.7045"/>
			<stop  offset="0.4657" style="stop-color:#712A7A;stop-opacity:0.5343"/>
			<stop  offset="0.6381" style="stop-color:#822A84;stop-opacity:0.3619"/>
			<stop  offset="0.8143" style="stop-color:#8D298A;stop-opacity:0.1857"/>
			<stop  offset="1" style="stop-color:#922A8E;stop-opacity:0"/>
		</linearGradient>
		<path fill="url(#SVGID_2_)" d="M36.763,171.573c0,0,19.417,9.86,111.792-12.003c20.522-4.857,34.332-7.788,47.25-5.844
			c0,0,11.445,11.96-14.092,22.941s-61.246,37.288-61.246,37.288s-51.573,13.222-56.398,12.85s-25.98,2.222-37.705-16.635
			C14.639,191.314,36.763,171.573,36.763,171.573z"/>
		
			<linearGradient id="SVGID_3_" gradientUnits="userSpaceOnUse" x1="15.6079" y1="183.0566" x2="165.0234" y2="183.0566" gradientTransform="matrix(0.9487 -0.316 0.316 0.9487 -45.9141 44.6255)">
			<stop  offset="0" style="stop-color:#922A8E;stop-opacity:0"/>
			<stop  offset="0.0129" style="stop-color:#932A8E;stop-opacity:0.0129"/>
			<stop  offset="0.2279" style="stop-color:#9B3290;stop-opacity:0.2279"/>
			<stop  offset="0.4982" style="stop-color:#A13791;stop-opacity:0.4982"/>
			<stop  offset="1" style="stop-color:#A23991"/>
		</linearGradient>
		<path opacity="0.43" fill="url(#SVGID_3_)" d="M94.359,200.385c-54.784,13.797-53.148,0.881-53.148,0.881
			S34.97,191.4,29.01,180.788c-4.974,7.505-9.359,18.585-2.646,29.382c11.725,18.856,32.88,16.263,37.705,16.635
			s56.398-12.85,56.398-12.85s28.547-21.025,52.847-33.328C153.52,184.786,125.531,192.535,94.359,200.385z"/>
		
			<linearGradient id="SVGID_4_" gradientUnits="userSpaceOnUse" x1="-0.5742" y1="120.4219" x2="239.4043" y2="120.4219" gradientTransform="matrix(0.9487 -0.316 0.316 0.9487 -45.9141 44.6255)">
			<stop  offset="0" style="stop-color:#2075BC"/>
			<stop  offset="0.5" style="stop-color:#2BACE2"/>
			<stop  offset="1" style="stop-color:#62C8D5"/>
		</linearGradient>
		<path fill="url(#SVGID_4_)" d="M188.817,1.173c0,0,44.408,50.124-43.669,115.492C50.696,186.763,26.229,227.578,65.051,226.77
			c0,0-54.43,13.385-62.882-38.725c-4.98-30.707,15.184-49.137,40.377-69.968C42.546,118.077,129.814,55.774,188.817,1.173z"/>
		
			<linearGradient id="SVGID_5_" gradientUnits="userSpaceOnUse" x1="87.2783" y1="366.6797" x2="87.2783" y2="270.8633" gradientTransform="matrix(0.9487 -0.316 0.316 0.9487 -45.9141 44.6255)">
			<stop  offset="0" style="stop-color:#D91F5D"/>
			<stop  offset="0.5" style="stop-color:#9E2064"/>
			<stop  offset="1" style="stop-color:#9E2064"/>
		</linearGradient>
		<path fill="url(#SVGID_5_)" d="M142.653,267.295c0,0-29.864,51.046,25.122,91.607c0.55,0.405,0.12,1.269-0.529,1.057
			c-8.736-2.85-22.707-9.027-34.001-15.289C98.874,325.611,125.375,286.142,142.653,267.295z"/>
		
			<linearGradient id="SVGID_6_" gradientUnits="userSpaceOnUse" x1="87.7632" y1="366.6797" x2="87.7632" y2="270.8633" gradientTransform="matrix(0.9487 -0.316 0.316 0.9487 -45.9141 44.6255)">
			<stop  offset="0" style="stop-color:#D91F5D"/>
			<stop  offset="0.9951" style="stop-color:#351840"/>
		</linearGradient>
		<path fill="url(#SVGID_6_)" d="M142.653,267.295c0,0-29.864,51.046,25.122,91.607c0.55,0.405,0.12,1.269-0.529,1.057
			c-8.736-2.85-29.239-10.625-37.892-18.755C100.713,314.292,125.375,286.142,142.653,267.295z"/>
		
			<linearGradient id="SVGID_7_" gradientUnits="userSpaceOnUse" x1="48.7046" y1="260.0957" x2="217.6797" y2="260.0957" gradientTransform="matrix(0.9487 -0.316 0.316 0.9487 -45.9141 44.6255)">
			<stop  offset="0" style="stop-color:#EE2E7C"/>
			<stop  offset="0.5" style="stop-color:#D91F5D"/>
			<stop  offset="1" style="stop-color:#9E2064"/>
		</linearGradient>
		<path fill="url(#SVGID_7_)" d="M227.948,180.388c-1.873-23.947-34.459-26.965-34.459-26.965
			c19.6,10.729-40.827,23.61-84.995,73.057c-31.334,35.079-18.859,70.98-18.859,70.98l0.087,0.048
			c9.796,32.835,43.523,47.162,43.523,47.162C79.119,266.704,231.201,224.525,227.948,180.388z"/>
		
			<linearGradient id="SVGID_8_" gradientUnits="userSpaceOnUse" x1="48.7046" y1="260.0957" x2="217.9141" y2="260.0957" gradientTransform="matrix(0.9487 -0.316 0.316 0.9487 -45.9141 44.6255)">
			<stop  offset="0" style="stop-color:#EE2E7C;stop-opacity:0"/>
			<stop  offset="0.0235" style="stop-color:#EE2F7B;stop-opacity:0.047"/>
			<stop  offset="0.2372" style="stop-color:#EE3679;stop-opacity:0.4744"/>
			<stop  offset="0.5" style="stop-color:#EE3878"/>
			<stop  offset="0.6013" style="stop-color:#E83777;stop-opacity:0.7974"/>
			<stop  offset="0.7072" style="stop-color:#DB3273;stop-opacity:0.5856"/>
			<stop  offset="0.8153" style="stop-color:#C92C6E;stop-opacity:0.3694"/>
			<stop  offset="0.9242" style="stop-color:#B12568;stop-opacity:0.1515"/>
			<stop  offset="1" style="stop-color:#9E2064;stop-opacity:0"/>
		</linearGradient>
		<path fill="url(#SVGID_8_)" d="M227.948,180.388c-0.909-24.268-34.459-26.965-34.459-26.965
			c19.6,10.729-40.827,23.61-84.995,73.057c-31.334,35.079-18.859,70.98-18.859,70.98l0.087,0.048
			c9.796,32.835,43.523,47.162,43.523,47.162C79.119,266.704,227.282,226.259,227.948,180.388z"/>
		
			<linearGradient id="SVGID_9_" gradientUnits="userSpaceOnUse" x1="-0.5742" y1="120.4219" x2="236.4473" y2="120.4219" gradientTransform="matrix(0.9487 -0.316 0.316 0.9487 -45.9141 44.6255)">
			<stop  offset="0" style="stop-color:#D9E7BC"/>
			<stop  offset="1" style="stop-color:#62C8D5"/>
		</linearGradient>
		<path fill="url(#SVGID_9_)" d="M95.01,110.357C196.745,37.759,188.817,1.173,188.817,1.173
			C136.624,50.937,42.546,118.077,42.546,118.077c-26.242,21.752-45.357,39.262-40.377,69.968
			c8.452,52.109,62.882,38.725,62.882,38.725C1.714,238.669-10.072,185.344,95.01,110.357z"/>
		
			<linearGradient id="SVGID_10_" gradientUnits="userSpaceOnUse" x1="63.147" y1="223.5508" x2="189.0021" y2="5.5633" gradientTransform="matrix(0.9487 -0.316 0.316 0.9487 -45.9141 44.6255)">
			<stop  offset="0" style="stop-color:#2075BC;stop-opacity:0"/>
			<stop  offset="0.0096" style="stop-color:#2C78BD;stop-opacity:0.0191"/>
			<stop  offset="0.1107" style="stop-color:#7196C9;stop-opacity:0.2215"/>
			<stop  offset="0.2075" style="stop-color:#9FB4D6;stop-opacity:0.415"/>
			<stop  offset="0.2974" style="stop-color:#C6D0E0;stop-opacity:0.5948"/>
			<stop  offset="0.3788" style="stop-color:#E4E6E8;stop-opacity:0.7577"/>
			<stop  offset="0.4491" style="stop-color:#F6F5ED;stop-opacity:0.8981"/>
			<stop  offset="0.5" style="stop-color:#FFFEF0"/>
			<stop  offset="0.6131" style="stop-color:#FBFCEF;stop-opacity:0.7737"/>
			<stop  offset="0.6958" style="stop-color:#F1F8ED;stop-opacity:0.6085"/>
			<stop  offset="0.7687" style="stop-color:#E0F1EA;stop-opacity:0.4627"/>
			<stop  offset="0.836" style="stop-color:#CAE9E6;stop-opacity:0.328"/>
			<stop  offset="0.8994" style="stop-color:#ACDEE0;stop-opacity:0.2011"/>
			<stop  offset="0.9592" style="stop-color:#85D2DA;stop-opacity:0.0816"/>
			<stop  offset="1" style="stop-color:#62C8D5;stop-opacity:0"/>
		</linearGradient>
		<path opacity="0.25" fill="url(#SVGID_10_)" d="M188.817,1.173L188.817,1.173c0,0.002,7.926,36.588-93.807,109.184
			C14.637,167.711,2.636,212.392,29.774,224.909c8.9,3.322,18.14,3.677,24.931,3.26c3.274-0.262,6.721-0.719,10.345-1.399
			c-38.821,0.809-14.354-40.008,80.098-110.104C233.226,51.297,188.817,1.173,188.817,1.173z"/>
		
			<linearGradient id="SVGID_11_" gradientUnits="userSpaceOnUse" x1="48.7046" y1="260.0957" x2="209.0518" y2="260.0957" gradientTransform="matrix(0.9487 -0.316 0.316 0.9487 -45.9141 44.6255)">
			<stop  offset="0" style="stop-color:#EE2E7C;stop-opacity:0"/>
			<stop  offset="0.2583" style="stop-color:#CD2771;stop-opacity:0.2583"/>
			<stop  offset="0.566" style="stop-color:#B3226A;stop-opacity:0.566"/>
			<stop  offset="0.8243" style="stop-color:#A42065;stop-opacity:0.8243"/>
			<stop  offset="1" style="stop-color:#9E2064"/>
		</linearGradient>
		<path fill="url(#SVGID_11_)" d="M204.146,186.08c18.063-13.321,8.795-24.473,7.869-25.507c-9.277-6.085-18.526-7.15-18.526-7.15
			c19.6,10.729-40.827,23.61-84.995,73.057c-31.334,35.079-18.859,70.98-18.859,70.98l0.087,0.048
			c9.796,32.835,43.523,47.162,43.523,47.162C33.221,286.166,184.579,200.511,204.146,186.08z"/>
		
			<linearGradient id="SVGID_12_" gradientUnits="userSpaceOnUse" x1="55.1445" y1="260.0957" x2="217.9141" y2="260.0957" gradientTransform="matrix(0.9487 -0.316 0.316 0.9487 -45.9141 44.6255)">
			<stop  offset="0" style="stop-color:#EE2E7C;stop-opacity:0"/>
			<stop  offset="0.018" style="stop-color:#EF4984;stop-opacity:0.036"/>
			<stop  offset="0.0685" style="stop-color:#F2799C;stop-opacity:0.1371"/>
			<stop  offset="0.1215" style="stop-color:#F59CB2;stop-opacity:0.2429"/>
			<stop  offset="0.1757" style="stop-color:#F8B9C7;stop-opacity:0.3515"/>
			<stop  offset="0.2317" style="stop-color:#FBD2D9;stop-opacity:0.4634"/>
			<stop  offset="0.2899" style="stop-color:#FDE4E8;stop-opacity:0.5798"/>
			<stop  offset="0.3513" style="stop-color:#FEF2F3;stop-opacity:0.7026"/>
			<stop  offset="0.418" style="stop-color:#FFFBFB;stop-opacity:0.8361"/>
			<stop  offset="0.5" style="stop-color:#FFFFFF"/>
			<stop  offset="0.5596" style="stop-color:#FBF8F9;stop-opacity:0.8808"/>
			<stop  offset="0.6219" style="stop-color:#F3E9EC;stop-opacity:0.7561"/>
			<stop  offset="0.6856" style="stop-color:#E8D5DB;stop-opacity:0.6287"/>
			<stop  offset="0.7503" style="stop-color:#DBBAC5;stop-opacity:0.4995"/>
			<stop  offset="0.8156" style="stop-color:#CC9AAC;stop-opacity:0.3689"/>
			<stop  offset="0.8815" style="stop-color:#BD7792;stop-opacity:0.2371"/>
			<stop  offset="0.9466" style="stop-color:#AC4F78;stop-opacity:0.1069"/>
			<stop  offset="1" style="stop-color:#9E2064;stop-opacity:0"/>
		</linearGradient>
		<path opacity="0.17" fill="url(#SVGID_12_)" d="M193.489,153.423c0,0,9.249,1.064,18.526,7.15
			c0.926,1.034,10.194,12.187-7.869,25.507c-19.567,14.431-173.25,97.183-70.901,158.59
			c-54.126-77.966,94.037-118.411,94.703-164.282C227.039,156.12,193.489,153.423,193.489,153.423z"/>
	</g>
</g>
</svg>
